<?xml version="1.0" encoding="iso-8859-1"?>
<!-- Generator: Adobe Illustrator 23.0.3, SVG Export Plug-In . SVG Version: 6.00 Build 0)  -->
<svg version="1.1" id="Layer_1" xmlns="http://www.w3.org/2000/svg" xmlns:xlink="http://www.w3.org/1999/xlink" x="0px" y="0px"
	 width="933px" height="300px" viewBox="0 0 933 300" enable-background="new 0 0 933 300" xml:space="preserve">
<g>
	<path fill="none" stroke="#FF0000" stroke-width="3" stroke-miterlimit="10" d="M216.319,142.946v82.636h-20.666v-26.02
		c-14.533,15.977-35.497,26.02-58.804,26.02c-43.89,0-79.47-35.582-79.47-79.466c0-43.89,35.58-79.47,79.47-79.47
		c21.944,0,41.805,8.898,56.188,23.278l-14.602,14.602c-10.634-10.648-25.346-17.232-41.586-17.232
		c-32.483,0-58.823,26.338-58.823,58.821c0,32.48,26.34,58.805,58.823,58.805c26.392,0,48.723-17.383,56.174-41.314H142.47v-20.675
		l53.103,0.014H216.319z"/>
	<path fill="none" stroke="#FF0000" stroke-width="3" stroke-miterlimit="10" d="M249.319,87.324v34.96l55.57,0.014v20.664h-55.57
		v82.637h-20.661V66.66h2.408v-0.014l97.736,0.014v20.663H249.319z"/>
	<path fill="none" stroke="#FF0000" stroke-width="3" stroke-miterlimit="10" d="M503.344,173.934
		c0,28.529-23.112,51.658-51.655,51.658h-58.847V66.639h43.224c21.078,0,38.157,17.082,38.157,38.146
		c0,7.437-2.134,14.379-5.828,20.249C488.731,131.975,503.344,151.247,503.344,173.934z M436.067,87.288h-22.563v34.991h22.563
		c9.657,0,17.497-7.84,17.497-17.494C453.563,95.125,445.724,87.288,436.067,87.288z M482.684,173.934
		c0-17.123-13.872-30.996-30.994-30.996h-38.186v61.976h38.186C468.812,204.915,482.684,191.044,482.684,173.934z"/>
	<path fill="none" stroke="#FF0000" stroke-width="3" stroke-miterlimit="10" d="M614.644,173.907
		c0,28.476-23.17,51.656-51.658,51.656c-28.472,0-51.655-23.18-51.655-51.656c0-28.488,23.183-51.658,51.655-51.658
		C591.474,122.249,614.644,145.419,614.644,173.907z M593.98,173.907c0-17.096-13.898-30.994-30.994-30.994
		c-17.079,0-30.992,13.898-30.992,30.994c0,17.082,13.912,30.996,30.992,30.996C580.082,204.903,593.98,190.989,593.98,173.907z"/>
	<path fill="none" stroke="#FF0000" stroke-width="3" stroke-miterlimit="10" d="M727.634,173.907
		c0,28.476-23.171,51.656-51.658,51.656c-11.626,0-22.358-3.855-30.994-10.357v10.357h-20.663V66.613h20.663v65.998
		c8.636-6.503,19.369-10.361,30.994-10.361C704.463,122.249,727.634,145.419,727.634,173.907z M706.969,173.907
		c0-17.096-13.9-30.994-30.993-30.994c-17.082,0-30.994,13.898-30.994,30.994c0,17.082,13.912,30.996,30.994,30.996
		C693.07,204.903,706.969,190.989,706.969,173.907z"/>
	<path fill="none" stroke="#FF0000" stroke-width="3" stroke-miterlimit="10" d="M839.933,173.907
		c0,28.476-23.171,51.656-51.658,51.656c-11.626,0-22.358-3.855-30.994-10.357v10.357h-20.663V66.613h20.663v65.998
		c8.636-6.503,19.369-10.361,30.994-10.361C816.762,122.249,839.933,145.419,839.933,173.907z M819.268,173.907
		c0-17.096-13.9-30.994-30.993-30.994c-17.082,0-30.994,13.898-30.994,30.994c0,17.082,13.912,30.996,30.994,30.996
		C805.369,204.903,819.268,190.989,819.268,173.907z"/>
	<path fill="none" stroke="#FF0000" stroke-width="3" stroke-miterlimit="10" d="M854.803,97.608
		c0-5.706,4.626-10.332,10.331-10.332c5.706,0,10.332,4.626,10.332,10.332c0,5.706-4.626,10.331-10.332,10.331
		C859.429,107.939,854.803,103.313,854.803,97.608z M854.803,225.566V122.26h20.662v103.306H854.803z"/>
</g>
<g>
</g>
<g>
</g>
<g>
</g>
<g>
</g>
<g>
</g>
<g>
</g>
<g>
</g>
<g>
</g>
<g>
</g>
<g>
</g>
<g>
</g>
<g>
</g>
<g>
</g>
<g>
</g>
<g>
</g>
</svg>
