<?xml version="1.0" encoding="iso-8859-1"?>
<!-- Generator: Adobe Illustrator 23.0.3, SVG Export Plug-In . SVG Version: 6.00 Build 0)  -->
<svg version="1.1" id="Layer_1" xmlns="http://www.w3.org/2000/svg" xmlns:xlink="http://www.w3.org/1999/xlink" x="0px" y="0px"
	 width="614px" height="550px" viewBox="0 0 614 550" enable-background="new 0 0 614 550" xml:space="preserve">
<g>
	<path d="M442.685,410.789c0,45.093-26.385,84.549-65.939,106.513c14.869-27.114,18.635-67.202,7.556-108.602
		c-17.736-66.23-66.959-110.643-109.89-99.127c-12.148,3.304-22.522,10.69-30.71,21.089c-0.121,0.194-0.292,0.389-0.389,0.583
		c-0.753,0.923-1.433,1.846-2.089,2.818c-0.17,0.243-0.316,0.437-0.486,0.729c-20.165,26.434-43.246,40.525-57.532,32.945
		c-2.041-1.069-3.79-2.575-5.345-4.373c-12.051-14.723-7.24-51.944,12.585-89.263c6.293-11.759,13.363-22.255,20.749-31.099
		c-24.514-22.304-39.699-53.111-39.699-87.076c0-68.028,60.691-123.228,135.57-123.228c33.965,0,64.967,11.37,88.777,30.127
		l46.794-27.017v40.039H410.08c20.311,21.526,32.556,49.515,32.556,80.079c0,68.028-60.691,123.131-135.57,123.131
		c-12.439,0-24.514-1.506-35.958-4.373c-6.657-1.652-13.168-3.79-19.388-6.365c-8.576-3.45-16.74-7.726-24.247-12.731
		c-0.121,0.292-0.316,0.632-0.486,0.923c-15.671,29.446-23.008,56.22-16.327,59.816c1.871,0.972,4.568,0.049,7.872-2.381
		c13.654-10.01,29.446-17.736,46.721-22.449c12.585-3.499,25.972-5.345,39.869-5.345
		C381.095,286.152,442.685,341.983,442.685,410.789z M234.81,175.266c3.887,14.383,9.694,27.454,16.91,38.776
		c0.68,1.069,1.336,2.089,2.089,3.11c3.912,5.88,8.285,11.176,12.95,15.938c2.94,3.013,6.001,5.782,9.16,8.261
		c17.712,14.189,38.46,20.263,58.018,15.015c39.869-10.642,60.108-64.287,45.263-119.778c-5.175-19.339-13.921-36.346-24.83-49.806
		c-20.384-25.316-48.324-38.339-74.297-31.39C240.204,66.129,219.941,119.726,234.81,175.266z"/>
</g>
<g>
</g>
<g>
</g>
<g>
</g>
<g>
</g>
<g>
</g>
<g>
</g>
<g>
</g>
<g>
</g>
<g>
</g>
<g>
</g>
<g>
</g>
<g>
</g>
<g>
</g>
<g>
</g>
<g>
</g>
</svg>
