<?xml version="1.0" encoding="iso-8859-1"?>
<!-- Generator: Adobe Illustrator 23.0.3, SVG Export Plug-In . SVG Version: 6.00 Build 0)  -->
<svg version="1.1" id="Layer_1" xmlns="http://www.w3.org/2000/svg" xmlns:xlink="http://www.w3.org/1999/xlink" x="0px" y="0px"
	 width="933px" height="300px" viewBox="0 0 933 300" enable-background="new 0 0 933 300" xml:space="preserve">
<g>
	<path fill="#FF0000" d="M175.294,226.957l-17.782-100.82l-36.671,100.82H92.602l-36.671-100.82l-17.782,100.82H9.22L36.981,69.5
		h2.389c0.062,0,0.124,0,0.195,0c15.597,0,29.637,9.82,34.981,24.506l32.176,88.416l32.167-88.416
		c5.344-14.686,19.392-24.506,34.99-24.506c0.062,0,0.124,0,0.186,0h2.389l27.771,157.458H175.294z M16.041,221.225h5.751
		l21.56-122.212c-1.23-0.602-2.548-1.026-3.919-1.026h-1.663L16.041,221.225z M52.012,115.38l-3.875-10.634L27.595,221.225h5.742
		L52.012,115.38z M96.601,221.242h6.025L58.47,99.845c-2.866-7.856-10.351-13.129-18.702-13.217l-0.991,5.644h0.602
		c6.166,0.088,11.669,3.733,13.766,9.519L96.601,221.242z M41.767,75.286l-1,5.68c10.333,0.495,19.507,7.113,23.082,16.915
		l44.863,123.344h6.034L69.166,95.952C64.902,84.239,54.074,76.17,41.767,75.286z M109.765,190.791l3.008,8.281l36.812-101.191
		c3.574-9.802,12.527-16.331,23.082-16.898l-1-5.68c-12.306,0.849-23.126,8.935-27.399,20.649L109.765,190.791z M174.091,92.272
		h0.566l-0.991-5.627c-8.378,0.318-15.836,5.344-18.702,13.2l-39.148,107.614l3.017,8.263l41.448-113.931
		C162.387,96.005,167.987,92.396,174.091,92.272z M161.422,115.38l18.676,105.845h5.742l-20.551-116.479L161.422,115.38z
		 M197.394,221.225L175.666,97.987h-1.619c-1.424-0.018-2.751,0.389-3.963,0.991l21.569,122.247H197.394z"/>
	<path fill="#FF0000" d="M225.987,98.04c0-7.856,6.387-14.244,14.244-14.244s14.244,6.387,14.244,14.244
		s-6.387,14.244-14.244,14.244S225.987,105.896,225.987,98.04z M225.987,134.56l28.496-18.242l-0.009,110.64h-28.487V134.56z
		 M231.711,98.058c0,4.689,3.822,8.511,8.52,8.511c4.698,0,8.52-3.822,8.52-8.511c0-4.707-3.822-8.528-8.52-8.528
		C235.533,89.529,231.711,93.351,231.711,98.058z M231.711,221.225h5.653v-87.16l-5.653,3.627V221.225z M248.75,126.775
		l-5.662,3.627v90.823h5.653L248.75,126.775z"/>
	<path fill="#FF0000" d="M350.667,190.119c0,20.525-16.703,37.228-37.237,37.228c-9.944,0-19.295-3.875-26.328-10.917l-2.017-1.999
		l22.011-22.224c-17.517-3.008-30.893-18.313-30.893-36.679c0-20.525,16.703-37.228,37.228-37.228
		c9.953,0,19.295,3.857,26.328,10.899l2.026,2.017l-22.02,22.206C337.299,156.447,350.676,171.753,350.667,190.119z M313.43,187.04
		h6.865l-10.767,10.864c1.203,0.602,2.521,0.955,3.901,0.955c4.813,0,8.741-3.928,8.741-8.741c0-4.83-3.919-8.741-8.741-8.741
		c-14.252,0-25.851-11.607-25.851-25.851c0-14.261,11.598-25.851,25.851-25.851c5.954,0,11.528,2.106,16.093,5.768l4.096-4.123
		c-5.662-4.724-12.722-7.308-20.18-7.308c-17.375,0-31.504,14.137-31.504,31.513S296.064,187.04,313.43,187.04z M344.952,190.119
		c0-17.375-14.137-31.513-31.513-31.513h-6.856l10.767-10.864c-1.203-0.602-2.53-0.955-3.91-0.955c-4.813,0-8.732,3.91-8.732,8.741
		c0,4.813,3.919,8.741,8.732,8.741c14.261,0,25.851,11.589,25.851,25.851c0,14.244-11.598,25.851-25.851,25.851
		c-5.945,0-11.519-2.106-16.084-5.786l-4.096,4.14c5.653,4.724,12.722,7.308,20.18,7.308
		C330.806,221.632,344.952,207.477,344.952,190.119z M298.966,155.527c0-7.98,6.485-14.474,14.465-14.474
		c2.928,0,5.715,0.867,8.086,2.477l3.981-4.017c-3.468-2.636-7.635-4.123-12.058-4.123c-11.103,0-20.127,9.042-20.127,20.136
		c0,11.094,9.033,20.118,20.127,20.118c7.971,0,14.465,6.494,14.465,14.474c0,7.962-6.485,14.456-14.465,14.456
		c-2.919,0-5.706-0.867-8.077-2.459l-3.981,4.017c3.468,2.619,7.635,4.105,12.058,4.105c11.094,0,20.127-9.024,20.127-20.118
		c0-11.112-9.033-20.136-20.127-20.136C305.459,169.983,298.966,163.507,298.966,155.527z"/>
	<path fill="#FF0000" d="M417.966,193.87l20.136,20.153l-2.026,2.017c-7.024,7.042-16.376,10.917-26.32,10.917
		c-20.525,0-37.228-16.703-37.228-37.228v-33.866c0-20.525,16.703-37.228,37.228-37.228c9.944,0,19.295,3.875,26.32,10.899
		l2.026,2.035l-20.136,20.136l-2.026-2.017c-1.654-1.646-3.848-2.566-6.184-2.566c-4.822,0-8.741,3.928-8.741,8.741v33.866
		c0,4.813,3.919,8.741,8.741,8.741c2.336,0,4.53-0.902,6.184-2.566L417.966,193.87z M409.747,221.242
		c1.991,0,3.955-0.212,5.866-0.566c0.628-0.124,1.221-0.354,1.84-0.495c1.274-0.318,2.53-0.672,3.742-1.132
		c0.69-0.283,1.354-0.637,2.026-0.955c1.079-0.513,2.141-1.044,3.158-1.681c0.664-0.425,1.301-0.885,1.946-1.362
		c0.513-0.372,0.991-0.796,1.477-1.221l-3.999-3.999c-4.565,3.663-10.13,5.751-16.057,5.751c-14.252,0-25.851-11.589-25.851-25.851
		v-33.848c0-14.261,11.598-25.851,25.851-25.851c5.927,0,11.492,2.088,16.057,5.733l4.114-4.105
		c-5.653-4.724-12.713-7.29-20.171-7.29c-17.367,0-31.504,14.12-31.504,31.495v33.866
		C378.243,207.105,392.38,221.225,409.747,221.242z M421.752,139.815c-3.459-2.601-7.608-4.07-12.005-4.07
		c-11.103,0-20.127,9.042-20.127,20.136v33.848c0,11.094,9.033,20.118,20.127,20.118c4.397,0,8.537-1.469,12.005-4.07l-3.999-3.999
		c-0.009,0.018-0.018,0.018-0.027,0.018c-1.044,0.69-2.176,1.185-3.353,1.575c-0.292,0.106-0.584,0.195-0.885,0.265
		c-1.203,0.336-2.451,0.549-3.742,0.549c-7.98,0-14.465-6.476-14.465-14.456v-33.848c0-7.98,6.485-14.474,14.465-14.474
		c2.893,0,5.653,0.849,8.006,2.406L421.752,139.815z"/>
	<path fill="#FF0000" d="M507.249,198.453h27.125v28.505h-37.228c-20.525,0-37.228-16.703-37.228-37.228v-33.813
		c0-20.525,16.703-37.228,37.228-37.228c20.525,0,37.228,16.703,37.228,37.228c0,9.944-3.866,19.304-10.899,26.328L507.249,198.453z
		 M497.146,221.242h31.504v-5.662h-31.504c-14.252,0-25.851-11.607-25.851-25.851v-33.813c0-14.244,11.598-25.851,25.851-25.851
		s25.851,11.607,25.851,25.851c0,6.901-2.689,13.394-7.573,18.278l-22.914,22.914c1.345,0.849,2.928,1.362,4.636,1.362h2.008
		l20.268-20.277c5.954-5.945,9.227-13.854,9.227-22.277c0-17.375-14.129-31.495-31.504-31.495c-17.367,0-31.504,14.12-31.504,31.495
		v33.813c0,17.375,14.137,31.495,31.504,31.495V221.242z M497.146,204.185c-7.971,0-14.465-6.476-14.465-14.456v-33.813
		c0-7.98,6.494-14.456,14.465-14.456s14.465,6.476,14.465,14.456c0,3.857-1.495,7.502-4.238,10.227l-18.968,18.968v4.618
		c0,1.009,0.212,1.964,0.522,2.866l22.454-22.454c3.795-3.786,5.892-8.847,5.892-14.226c0-11.094-9.024-20.118-20.127-20.118
		c-11.094,0-20.127,9.024-20.127,20.118v33.813c0,11.094,9.033,20.118,20.127,20.118h31.504v-5.662H497.146z M503.33,162.092
		c1.646-1.646,2.557-3.84,2.557-6.175c0-4.83-3.919-8.741-8.741-8.741c-4.822,0-8.741,3.91-8.741,8.741v21.109L503.33,162.092z"/>
	<path fill="#FF0000" d="M584.73,67.129v159.829h-28.496V85.371L584.73,67.129z M561.958,221.242h5.653V84.876l-5.653,3.627V221.242
		z M579.006,77.586l-5.662,3.627v140.012h5.662V77.586z"/>
	<path fill="#FF0000" d="M634.954,67.129v159.829h-28.496V85.371L634.954,67.129z M612.182,221.242h5.653V84.876l-5.653,3.627
		V221.242z M629.231,77.586l-5.662,3.627v140.012h5.662V77.586z"/>
	<path fill="#FF0000" d="M731.147,155.917v71.059h-28.496v-1.168c-2.858,0.69-5.759,1.168-8.741,1.168
		c-20.525,0-37.228-16.703-37.228-37.228s16.703-37.228,37.228-37.228c2.875,0,5.671,0.354,8.36,0.973
		c-1.053-3.627-4.379-6.317-8.36-6.317H668.06v-28.487h25.851C714.444,118.689,731.147,135.392,731.147,155.917z M725.414,221.26
		v-31.495c0-17.375-14.129-31.513-31.504-31.513c-17.367,0-31.504,14.137-31.504,31.513c0,17.358,14.137,31.495,31.504,31.495
		c2.999,0,5.91-0.513,8.741-1.345v-5.892c-2.796,1.009-5.742,1.575-8.741,1.575c-14.252,0-25.851-11.589-25.851-25.851
		c0-14.244,11.598-25.851,25.851-25.851c14.252,0,25.851,11.607,25.851,25.851v31.513H725.414z M725.414,170.001v-14.084
		c0-17.375-14.129-31.513-31.504-31.513h-20.127v5.662h20.127c14.252,0,25.851,11.607,25.851,25.851v7.095
		C721.92,165.1,723.813,167.453,725.414,170.001z M708.331,155.439c1.999,0.832,3.901,1.876,5.706,3.043v-2.566
		c0-11.094-9.033-20.118-20.127-20.118h-20.127v5.644h20.127C701.722,141.443,708.066,147.689,708.331,155.439z M708.375,221.26
		h5.662v-31.513c0-11.094-9.024-20.118-20.127-20.118c-11.094,0-20.127,9.024-20.127,20.118c0,11.112,9.033,20.136,20.127,20.136
		c3.043,0,6.025-0.725,8.741-2.052v-6.635c-2.433,1.876-5.441,3.026-8.741,3.026c-7.971,0-14.465-6.494-14.465-14.474
		c0-7.962,6.485-14.456,14.465-14.456s14.465,6.494,14.465,14.456V221.26z M693.91,181.006c-4.822,0-8.741,3.928-8.741,8.741
		c0,4.83,3.919,8.741,8.741,8.741s8.741-3.91,8.741-8.741C702.651,184.935,698.732,181.006,693.91,181.006z"/>
	<path fill="#FF0000" d="M827.473,155.863v71.094h-28.496v-71.094c0-4.83-3.928-8.741-8.741-8.741s-8.741,3.91-8.741,8.741v71.094
		h-28.487V134.56l28.487-18.242v3.468c2.858-0.69,5.759-1.168,8.741-1.168C810.77,118.618,827.464,135.321,827.473,155.863z
		 M758.732,221.242h5.653v-87.178l-5.653,3.627V221.242z M775.762,126.775l-5.653,3.627v90.823h5.653V126.775z M821.74,155.846
		c0-17.375-14.137-31.495-31.513-31.495c-2.99,0-5.91,0.513-8.741,1.327v5.91c2.796-1.009,5.742-1.575,8.741-1.575
		c14.261,0,25.851,11.589,25.851,25.851v65.361h5.662V155.846z M804.701,155.863v65.361h5.662v-65.379
		c0-11.094-9.033-20.118-20.127-20.118c-3.043,0-6.025,0.725-8.741,2.035v6.635c2.433-1.858,5.441-3.008,8.741-3.008
		C798.207,141.39,804.701,147.884,804.701,155.863z"/>
	<path fill="#FF0000" d="M923.78,116.318v122.583c0,20.525-16.703,37.228-37.228,37.228c-9.953,0-19.295-3.857-26.328-10.899
		l-2.026-2.035l20.144-20.136l2.026,2.017c1.646,1.646,3.848,2.566,6.184,2.566c4.813,0,8.732-3.928,8.732-8.741V225.79
		c-2.849,0.69-5.759,1.168-8.732,1.168c-20.534,0-37.237-16.703-37.237-37.228V134.56l28.496-18.242v73.412
		c0,4.813,3.928,8.741,8.741,8.741s8.732-3.928,8.732-8.741V134.56L923.78,116.318z M895.284,219.898v-5.892
		c-2.787,0.991-5.733,1.575-8.732,1.575c-14.261,0-25.86-11.607-25.86-25.851v-55.665l-5.653,3.627v52.038
		c0,17.375,14.137,31.495,31.513,31.495C889.543,221.225,892.453,220.712,895.284,219.898z M918.056,126.775l-5.653,3.627v108.499
		c0,14.244-11.598,25.851-25.851,25.851c-5.936,0-11.492-2.088-16.057-5.751l-4.114,4.105c5.653,4.724,12.713,7.29,20.171,7.29
		c17.367,0,31.504-14.12,31.504-31.495V126.775z M872.088,189.73v-62.955l-5.671,3.627v59.328c0,11.094,9.033,20.118,20.136,20.118
		c3.043,0,6.016-0.725,8.732-2.035v-6.635c-2.433,1.858-5.441,3.008-8.732,3.008C878.581,204.185,872.088,197.709,872.088,189.73z
		 M874.538,254.967c3.459,2.583,7.6,4.07,12.005,4.07c11.103,0,20.127-9.042,20.127-20.136V134.065l-5.662,3.627v101.209
		c0,7.962-6.485,14.456-14.456,14.456c-2.893,0-5.653-0.832-8.006-2.406L874.538,254.967z"/>
</g>
<g>
</g>
<g>
</g>
<g>
</g>
<g>
</g>
<g>
</g>
<g>
</g>
<g>
</g>
<g>
</g>
<g>
</g>
<g>
</g>
<g>
</g>
<g>
</g>
<g>
</g>
<g>
</g>
<g>
</g>
</svg>
