<?xml version="1.0" encoding="iso-8859-1"?>
<!-- Generator: Adobe Illustrator 23.0.3, SVG Export Plug-In . SVG Version: 6.00 Build 0)  -->
<svg version="1.1" id="Layer_1" xmlns="http://www.w3.org/2000/svg" xmlns:xlink="http://www.w3.org/1999/xlink" x="0px" y="0px"
	 width="614px" height="550px" viewBox="0 0 614 550" enable-background="new 0 0 614 550" xml:space="preserve">
<g>
	<path d="M353.402,514.866L242.566,352.494v162.373h-85.499V35.134h85.499v13.585c18.706-8.679,39.434-13.585,61.321-13.585
		c80.971,0,146.82,65.822,146.82,146.793c0,72.238-52.561,132.939-122.292,144.691l128.518,188.249H353.402z M174.479,52.546v60.108
		c4.717-8.787,10.297-16.981,16.604-24.582V52.546H174.479z M174.506,497.454h15.93V276.159l-7.79-11.429
		c-3.073-4.528-5.58-9.326-8.14-14.07V497.454z M303.887,52.6c-71.321,0-129.354,58.006-129.354,129.327
		c-0.054,26.092,7.763,51.321,22.534,72.938L362.62,497.454h18.733L210.221,245.862c-12.938-18.922-19.784-41.024-19.758-63.936
		c0-62.534,50.89-113.424,113.424-113.424s113.424,50.89,113.424,113.424c0,61.51-49.219,111.645-110.324,113.316l10.404,15.202
		c65.418-6.792,115.877-62.049,115.877-128.518C433.267,110.606,375.208,52.6,303.887,52.6z M423.887,497.4L238.846,226.294
		c-0.081-0.108-0.108-0.216-0.189-0.27c-0.189-0.27-0.296-0.593-0.485-0.863c-2.372-3.612-4.367-7.332-6.119-11.267
		c-0.566-1.294-1.051-2.588-1.536-3.935c-1.24-3.181-2.237-6.361-3.019-9.65c-0.35-1.402-0.701-2.803-0.97-4.205
		c-0.809-4.582-1.375-9.164-1.402-13.855c0-0.108-0.027-0.216-0.027-0.377c0-43.396,35.337-78.707,78.761-78.707
		s78.76,35.31,78.76,78.707c0,43.45-35.337,78.761-78.76,78.761c-8.086,0-15.741-1.563-23.1-3.828l14.016,20.539
		c2.992,0.27,5.984,0.539,9.084,0.539c52.938,0,95.984-43.019,95.984-95.957s-43.046-96.011-95.984-96.011
		s-95.984,43.073-95.984,96.011c-0.027,19.353,5.768,38.059,16.712,54.124l-7.197,4.906l7.224-4.906L402.432,497.4H423.887z
		 M225.126,326.941l-17.251-25.229V497.4h17.251V326.941z M225.126,52.546h-16.577v17.952c5.202-4.474,10.755-8.571,16.577-12.237
		V52.546z M253.132,216.32c11.051,16.28,29.677,26.954,50.755,26.954c33.828,0,61.321-27.493,61.321-61.294
		s-27.52-61.348-61.321-61.348s-61.321,27.547-61.321,61.348c0,0.054,0.027,0.162,0.027,0.27c0.027,3.666,0.431,7.224,1.078,10.728
		c0.189,1.132,0.485,2.21,0.755,3.288c0.62,2.588,1.402,5.067,2.345,7.493c0.377,1.078,0.755,2.102,1.213,3.127
		c1.348,2.965,2.884,5.876,4.663,8.571C252.835,215.727,252.943,215.997,253.132,216.32z"/>
</g>
<g>
</g>
<g>
</g>
<g>
</g>
<g>
</g>
<g>
</g>
<g>
</g>
<g>
</g>
<g>
</g>
<g>
</g>
<g>
</g>
<g>
</g>
<g>
</g>
<g>
</g>
<g>
</g>
<g>
</g>
</svg>
