<?xml version="1.0" encoding="iso-8859-1"?>
<!-- Generator: Adobe Illustrator 23.0.3, SVG Export Plug-In . SVG Version: 6.00 Build 0)  -->
<svg version="1.1" id="Layer_1" xmlns="http://www.w3.org/2000/svg" xmlns:xlink="http://www.w3.org/1999/xlink" x="0px" y="0px"
	 width="614px" height="550px" viewBox="0 0 614 550" enable-background="new 0 0 614 550" xml:space="preserve">
<g>
	<path d="M915.049,410.942c0,45.093-26.385,84.549-65.939,106.513c14.869-27.114,18.635-67.202,7.556-108.602
		c-17.736-66.23-66.959-110.643-109.89-99.127c-12.148,3.304-22.522,10.69-30.71,21.089c-0.121,0.194-0.292,0.389-0.389,0.583
		c-0.753,0.923-1.433,1.846-2.089,2.818c-0.17,0.243-0.316,0.437-0.486,0.729c-20.166,26.434-43.247,40.525-57.532,32.945
		c-2.041-1.069-3.79-2.575-5.345-4.373c-12.051-14.723-7.24-51.944,12.585-89.263c6.293-11.759,13.363-22.255,20.749-31.099
		c-24.514-22.304-39.699-53.111-39.699-87.076c0-68.028,60.691-123.228,135.57-123.228c33.966,0,64.967,11.37,88.777,30.127
		L915,35.961V76h-32.556C902.755,97.526,915,125.515,915,156.079c0,68.028-60.691,123.131-135.57,123.131
		c-12.439,0-24.514-1.506-35.958-4.373c-6.657-1.652-13.168-3.79-19.388-6.365c-8.576-3.45-16.74-7.726-24.247-12.731
		c-0.122,0.292-0.316,0.632-0.486,0.923c-15.671,29.446-23.008,56.22-16.327,59.816c1.871,0.972,4.568,0.049,7.872-2.381
		c13.654-10.01,29.446-17.736,46.721-22.449c12.585-3.499,25.972-5.345,39.869-5.345
		C853.459,286.304,915.049,342.136,915.049,410.942z M707.174,175.418c3.887,14.383,9.694,27.454,16.91,38.776
		c0.68,1.069,1.336,2.089,2.089,3.11c3.912,5.88,8.285,11.176,12.95,15.938c2.94,3.013,6.001,5.782,9.159,8.261
		c17.712,14.189,38.46,20.263,58.018,15.015c39.869-10.642,60.108-64.287,45.263-119.778c-5.175-19.339-13.922-36.346-24.83-49.806
		c-20.384-25.316-48.324-38.339-74.297-31.39C712.568,66.282,692.305,119.878,707.174,175.418z"/>
</g>
<g>
	<path fill="#FFFFFF" d="M521.223,509.892c-0.757,0.89-1.558,1.736-2.403,2.582c-30.036,30.035-78.806,30.035-108.842,0
		c-0.134-0.134-24.074-24.074-24.207-24.207c-4.584,2.091-9.301,4.005-14.062,5.696c-18.689,6.764-38.535,10.368-59.094,10.368
		c-13.483,0-26.654-1.558-39.425-4.539c-9.078-2.092-17.977-4.94-26.566-8.41c-80.409-32.751-138.257-123.618-138.257-230.546
		c0-134.474,91.444-243.495,204.248-243.495s204.292,109.021,204.292,243.495c0,43.164-9.433,83.702-25.942,118.855
		c-0.845,1.736-1.691,3.47-2.536,5.206c-11.925,23.985-27.233,45.299-45.122,63.055c-2.136,2.18-4.36,4.272-6.586,6.273
		l29.147,29.147C482.376,499.924,502.756,509.047,521.223,509.892z M444.508,383.695c20.959-43.741,26.076-101.857,10.234-160.95
		C425.996,115.504,339.091,45.641,260.641,66.644C182.145,87.692,141.83,191.64,170.576,298.925
		c15.663,58.338,48.503,105.639,87.84,133.273c4.891,3.426,9.923,6.541,14.996,9.39c25.72,14.194,53.442,20.158,80.542,15.752
		c0.267-0.044,0.534-0.088,0.757-0.133l-8.232-8.233c-18.471-18.466-41.784-27.722-61.763-26.432
		c1.691-2.091,3.515-4.094,5.429-6.007c30.036-30.081,78.762-30.081,108.842,0l0.357,0.355c4.138,4.184,7.698,8.722,10.679,13.572
		c0.534-0.445,1.023-0.89,1.513-1.379C424.924,416.936,436.009,401.494,444.508,383.695z"/>
</g>
<g>
</g>
<g>
</g>
<g>
</g>
<g>
</g>
<g>
</g>
<g>
</g>
<g>
</g>
<g>
</g>
<g>
</g>
<g>
</g>
<g>
</g>
<g>
</g>
<g>
</g>
<g>
</g>
<g>
</g>
</svg>
