<?xml version="1.0" encoding="iso-8859-1"?>
<!-- Generator: Adobe Illustrator 23.0.3, SVG Export Plug-In . SVG Version: 6.00 Build 0)  -->
<svg version="1.1" id="Layer_1" xmlns="http://www.w3.org/2000/svg" xmlns:xlink="http://www.w3.org/1999/xlink" x="0px" y="0px"
	 width="933px" height="300px" viewBox="0 0 933 300" enable-background="new 0 0 933 300" xml:space="preserve">
<g>
	<path fill="none" stroke="#FF0000" stroke-width="3" stroke-miterlimit="10" d="M164.605,157.386v68.061
		c-6.069-2.233-11.226-6.362-14.752-11.667c-10.506,8.052-23.025,12.725-36.44,12.725c-37.247,0-67.443-36-67.443-80.404
		s30.194-80.404,67.443-80.404c15.414,0,29.637,6.172,40.995,16.56l-10.785,18.647c-13.078-15.517-30.813-23.378-47.387-18.926
		c-25.92,6.936-39.232,41.275-29.74,76.687c9.492,35.426,38.189,58.495,64.094,51.559c5.481-1.469,10.403-4.173,14.664-7.846
		c-0.324-1.748-0.485-3.556-0.485-5.392V168.95l-6.671-11.564H164.605z"/>
	<path fill="none" stroke="#FF0000" stroke-width="3" stroke-miterlimit="10" d="M208.748,77.538v57.834l37.117-8.301v14.209
		h-37.117v72.704l6.627,11.461H182.27l6.642-11.477V78.096h-0.103c0,0,0,0-0.015,0l-6.539-11.314h94.877l-9.169,15.869
		C249.419,79.345,229.494,77.538,208.748,77.538z"/>
	<path fill="none" stroke="#FF0000" stroke-width="3" stroke-miterlimit="10" d="M441.604,184.273
		c0,23.201-17.603,42.009-39.379,42.17l-1.543-0.014l-22.658-0.411l-19.836-0.353l-6.73-0.117l6.73-11.637V78.287l-6.73-11.667
		l6.73-0.117l19.836-0.382l21.144-0.382l3.13-0.059c21.541,0.44,38.865,19.16,38.865,42.171c0,16.81-9.242,31.327-22.628,38.1
		C432.156,152.622,441.604,167.272,441.604,184.273z M378.025,143.41c1.058,0.308,2.145,0.558,3.233,0.735
		c2.63,0.411,5.289,0.47,7.934,0.161c2.572-0.294,5.143-0.926,7.626-1.866c7.2-2.733,13.724-8.096,18.059-15.604
		c9.286-16.075,5.054-35.897-9.463-44.273c-8.478-4.893-18.602-4.79-27.389-0.647V143.41z M408.617,155.488
		c-9.565-5.525-21.291-4.423-30.592,1.822v54.969c13.695,6.656,31.107,0.529,39.659-14.283
		C426.602,182.553,422.547,163.525,408.617,155.488z"/>
	<path fill="none" stroke="#FF0000" stroke-width="3" stroke-miterlimit="10" d="M540.196,118.533V224.43
		c-4.82-3.6-8.963-8.081-12.181-13.195c-7.258,8.698-18.191,14.223-30.416,14.223c-21.923,0-39.673-17.765-39.673-39.673v-48.9
		l-6.671-7.92l6.759-2.439l19.748-8.008v65.151c0,14.591,11.828,26.434,26.419,26.434c7.567,0,14.386-3.173,19.19-8.272
		c-1.955-5.32-3.012-11.064-3.012-17.06v-47.887l-6.671-7.92l6.789-2.454L540.196,118.533z"/>
	<path fill="none" stroke="#FF0000" stroke-width="3" stroke-miterlimit="10" d="M623.35,119.135l-11.373,19.661
		c-3.467-2.425-7.699-3.85-12.269-3.85c-6.069,0-11.549,2.513-15.458,6.568v71.484l6.627,11.447h-33.105l6.642-11.491v-75.952
		l-6.656-7.92l6.656-2.41l19.836-8.023v6.759c7.714-4.952,16.883-7.817,26.728-7.817
		C615.253,117.593,619.398,118.136,623.35,119.135z"/>
	<path fill="none" stroke="#FF0000" stroke-width="3" stroke-miterlimit="10" d="M787.087,157.325v76.995
		c-12.004-9.037-19.763-23.422-19.763-39.614c0-1.044,0.03-2.087,0.103-3.13c-0.03,0.03-0.073,0.059-0.117,0.059l-0.044-32.267
		c0-14.606-11.829-26.434-26.42-26.434c-6.113,0-11.74,2.072-16.222,5.569c-1.176,0.91-2.263,1.91-3.262,2.997
		c2.102,4.835,3.262,10.154,3.262,15.767v56.042l6.435,11.138h-32.722l6.509-11.285v-53.779c0-14.591-11.828-26.434-26.434-26.434
		c-6.465,0-12.386,2.322-16.971,6.186v73.88l6.612,11.432h-33.09l6.642-11.476v-75.967l-6.48-7.713l-0.176-0.192l6.67-2.424
		l19.822-8.023v6.656c6.568-4.849,14.694-7.714,23.51-7.714c12.711,0,24.01,5.981,31.254,15.267c2.38-3.071,5.231-5.76,8.42-8.008
		c6.451-4.54,14.312-7.2,22.79-7.2c21.173,0,38.482,16.589,39.6,37.484C787.073,155.855,787.087,156.59,787.087,157.325z"/>
	<path fill="none" stroke="#FF0000" stroke-width="3" stroke-miterlimit="10" d="M887.031,159.91v0.015c0,0.014,0,0.014,0,0.03
		l-0.206,64.491c-4.452-3.38-8.317-7.509-11.417-12.181c-7.744,7.949-19.411,12.988-32.444,12.988
		c-23.348,0-42.274-16.163-42.274-36.102c0-5.789,1.587-11.255,4.438-16.105c4.055-6.964,10.667-12.636,18.793-16.148
		c5.716-2.468,12.195-3.864,19.043-3.864c8.257,0,15.958,2.028,22.466,5.539c0.602,0.309,1.19,0.647,1.763,0.999v-8.698
		c0-10.888-9.918-19.719-22.157-19.719c-3.571,0-6.951,0.749-9.933,2.086v8.992l-7.023-4.055l-13.122-7.567
		c7.627-7.816,18.294-12.681,30.079-12.681c18.631,0,34.441,12.152,39.922,28.962C886.309,150.991,887.029,155.37,887.031,159.91z
		 M867.192,177.558c-0.294-0.661-0.632-1.309-0.999-1.94c-2.116-3.658-5.011-6.582-8.36-8.639
		c-7.317-4.57-16.736-5.084-24.612-0.544c-0.308,0.177-0.618,0.367-0.926,0.588c-9.507,6.054-13.283,18.014-9.449,28.564
		c0.486,1.367,1.102,2.69,1.852,3.983c6.759,11.696,21.512,15.81,32.973,9.197c4.305-2.483,7.538-6.142,9.522-10.359V177.558z"/>
</g>
<g>
</g>
<g>
</g>
<g>
</g>
<g>
</g>
<g>
</g>
<g>
</g>
<g>
</g>
<g>
</g>
<g>
</g>
<g>
</g>
<g>
</g>
<g>
</g>
<g>
</g>
<g>
</g>
<g>
</g>
</svg>
